<?xml version="1.0" encoding="utf-8"?>
<svg version="1.1" xmlns:xlink="http://www.w3.org/1999/xlink" width="30px" height="42px" xmlns="http://www.w3.org/2000/svg">
  <g transform="matrix(1 0 0 1 -641 -2348 )">
    <path d="M 6.096 0.279000007812499  L 6.094999984375 0.2790000078125  C 6.01956995239695 0.279755614592927  5.94557608439647 0.299716745911915  5.880000015625 0.336999984375  C 5.73383924631556 0.412551298490261  5.64204254468995 0.563336698448863  5.64204254468995 0.727869283518418  C 5.64204254468995 0.80712328903522  5.66344883990614 0.884905925856662  5.704 0.952999984375  L 7.9539999921875 5.0159999765625  C 3.626000015625 7.268  0.703999968750001 11.5459999609375  0.697999984375 17  L 29.1720000078125 17  C 29.1660000234375 11.546000015625  26.243000015625 7.268  21.916 5.0159999765625  L 24.1659999921875 0.952999984374999  C 24.2064004795173 0.884997621816758  24.2277227294093 0.807362064730185  24.2277227294093 0.72826389351248  C 24.2277227294093 0.563421693711474  24.1355836651144 0.412406778084888  23.989000015625 0.336999984374999  C 23.9213215553491 0.29819319201488  23.8446650334625 0.277775023585544  23.7666500277354 0.277775023585544  C 23.6021464485877 0.277775023585544  23.4509368120485 0.368130115912076  23.373000015625 0.512999999999999  L 21.0950000234375 4.6200000234375  C 19.1543675619216 3.7642786035543  17.0559165170338 3.32483024097607  14.9350000234375 3.3299999921875  C 12.7290000078125 3.3299999921875  10.6380000390625 3.79399996875  8.7750000234375 4.6200000234375  L 6.496000015625 0.512999999999999  C 6.41666572397597 0.366578417376899  6.26251259299892 0.276398842288767  6.096 0.279000007812499  Z M 0.697999984374999 18  L 1 17.580000015625  L 1 38.2169999765625  C 0.697993757443408 38.2196697573659  0.697990643974439 38.2223395445229  0.697990643974439 38.2250093325881  C 0.697990643974439 40.1215551678217  2.23544481655327 41.6590093404006  4.13199065178694 41.6590093404006  C 4.13466043985078 41.6590093404006  4.13733022701042 41.6590062269316  4.1400000078125 41  L 25.729999984375 41  C 25.7326697651797 41.6590062269316  25.7353395523341 41.6590093404006  25.7380093404006 41.6590093404006  C 27.6345551756342 41.6590093404006  29.1720093482131 40.1215551678217  29.1720093482131 38.2250093325881  C 29.1720093482131 38.2223395445225  29.1720062347441 38.2196697573663  29 38.2169999765625  L 29 18  L 0.697999984374999 18  Z " fill-rule="nonzero" fill="#00d083" stroke="none" transform="matrix(1 0 0 1 641 2348 )" />
  </g>
</svg>