<?xml version="1.0" encoding="utf-8"?>
<svg version="1.1" xmlns:xlink="http://www.w3.org/1999/xlink" width="43px" height="41px" xmlns="http://www.w3.org/2000/svg">
  <g transform="matrix(1 0 0 1 -276 -378 )">
    <path d="M 41.09592586875 5.95849615645558  L 41.2389357306641 5.90108211328125  C 39.2081957267578 3.36768962664473  36.4695569269531 0.841473851151316  32.2650671160156 0.841473851151316  C 29.3190640076172 0.841473851151316  26.8664449316406 3.71935036081414  22.7978144689453 3.71935036081414  C 19.5729421503906 3.71935036081414  18.2357999738281 0.977832129934211  14.7320584451172 0.977832070929276  C 7.43855566386719 0.977832070929276  0.216557784179688 7.51585073519737  0.216557784179688 16.013121926398  C 0.216557784179688 20.505766998972  1.68955930898438 27.4672138628701  4.98593658789063 33.5100368030428  C 7.36705076230469 37.9380911212993  10.3130538119141 40.8159676309622  13.6094310320313 40.8159676309622  C 15.9905452064453 40.8159676309622  18.7935383941406 38.6342358194901  22.1614205746094 38.6342358194901  C 25.1074236830078 38.6342358194901  27.8389119691406 40.6006651165707  30.5060458673828 40.6006651755757  C 36.8842855441406 40.6006651755757  42.7762917609375 32.3115196696135  42.7762917021484 26.7567156833882  C 42.7762917021484 26.4768224736842  42.7047868005859 26.2615199592928  42.7047868005859 26.0533942740543  L 42.7047868005859 25.7017335398849  C 38.571801891211 23.4482342629523  36.3265471238281 20.1469295536595  36.3265471238281 15.3743912713816  C 36.3265471238281 11.5061233725329  38.0069129572266 8.1330511977796  41.09592586875 5.95849615645558  Z " fill-rule="nonzero" fill="#ffffff" stroke="none" transform="matrix(1 0 0 1 276 378 )" />
  </g>
</svg>