<?xml version="1.0" encoding="utf-8"?>
<svg version="1.1" xmlns:xlink="http://www.w3.org/1999/xlink" width="50px" height="43px" xmlns="http://www.w3.org/2000/svg">
  <g transform="matrix(1 0 0 1 -134 -376 )">
    <path d="M 37.1666666666667 41.108  C 37.1666666666667 40.1715555555556  36.4 39.4023333333333  35.4666666666667 39.4023333333333  L 32.6333333333333 39.4023333333333  L 31.2666666666667 32.68  C 31.1 31.8773333333333  30.4 31.3087777777778  29.6 31.3087777777778  L 20.3666666666667 31.3087777777778  C 19.5666666666667 31.3087777777778  18.8666666666667 31.8773333333333  18.7 32.68  L 17.3 39.4023333333333  L 14.5333333333333 39.4023333333333  C 13.6 39.4023333333333  12.8333333333333 40.1715555555556  12.8333333333333 41.108  C 12.8333333333333 42.0444444444445  13.6 42.8136666666667  14.5333333333333 42  L 35.4666666666667 42  C 36.4 42.7802222222222  37.1666666666667 42.0444444444445  37.1666666666667 41.108  Z M 20.8 39.3688888888889  L 21.7666666666667 34.6866666666667  L 28.2333333333333 34.6866666666667  L 29.2 39.3688888888889  L 20.8 39.3688888888889  Z M 1 25  L 49 25  L 49 3.61677777777778  C 49.1666752960215 3.61365981329054  49.1666796107052 3.61054183828136  49.1666796107052 3.60742386177301  C 49.1666796107052 1.74702619435302  47.6635397841443 0.238875901703562  45.8093228398719 0.238875901703562  C 45.8062152220884 0.238875901703562  45.8031076058023 0.238880230769509  45.8 1  L 4.2 1  C 4.19689239419734 0.238880230769507  4.19378477791199 0.238875901703562  4.19067716012813 0.238875901703562  C 2.33646021585572 0.238875901703562  0.8333203892948 1.74702619435302  0.8333203892948 3.60742386177301  C 0.8333203892948 3.61054183828244  0.83332470397847 3.61365981328946  1 3.61677777777778  L 1 25  Z " fill-rule="nonzero" fill="#ffffff" stroke="none" transform="matrix(1 0 0 1 134 376 )" />
  </g>
</svg>